<?xml version="1.0" standalone="no"?>
<!DOCTYPE svg PUBLIC "-//W3C//DTD SVG 20010904//EN"
 "http://www.w3.org/TR/2001/REC-SVG-20010904/DTD/svg10.dtd">
<svg version="1.0" xmlns="http://www.w3.org/2000/svg"
 width="800.000000pt" height="800.000000pt" viewBox="0 0 800.000000 800.000000"
 preserveAspectRatio="xMidYMid meet">

<g transform="translate(0.000000,800.000000) scale(0.100000,-0.100000)"
fill="#000000" stroke="none">
<path d="M0 5959 c0 -1456 3 -2046 11 -2061 8 -14 8 -23 0 -31 -8 -8 -11 -490
-11 -1692 l0 -1681 48 0 c26 1 101 -1 167 -3 108 -4 114 -5 60 -11 -33 -4 -78
-13 -100 -20 -26 -8 -64 -10 -108 -6 -61 6 -67 5 -67 -13 0 -25 62 -31 185
-19 49 5 141 7 205 4 63 -4 138 -6 165 -6 76 0 637 10 742 13 84 2 93 0 103
-18 8 -15 8 -29 -1 -50 -7 -17 -11 -49 -10 -71 1 -23 -2 -44 -7 -48 -5 -3 -8
-29 -7 -58 3 -53 -9 -78 -33 -70 -8 2 -16 -6 -19 -18 -4 -16 -8 -18 -14 -8 -7
10 -12 11 -29 1 -11 -7 -46 -13 -79 -13 -72 0 -121 -9 -121 -23 0 -6 35 -7 99
-3 128 10 171 2 171 -30 l0 -24 2725 0 2725 0 0 49 c0 28 5 53 11 57 8 4 8 9
1 13 -6 4 -14 22 -17 41 -7 41 -33 98 -49 107 -6 4 -39 8 -73 9 -35 2 -67 5
-73 9 -5 3 -15 -5 -22 -19 -6 -14 -15 -26 -20 -26 -5 0 -7 4 -4 9 3 5 -2 12
-11 15 -9 4 -20 2 -23 -5 -14 -21 -19 36 -10 106 5 39 9 97 10 131 l0 61 243
1 c133 1 289 4 347 6 116 6 192 -10 210 -44 16 -30 14 -341 -3 -410 -3 -14 -8
-44 -10 -68 l-5 -42 45 0 46 0 -7 108 c-5 59 -10 143 -12 187 -2 44 -7 114
-10 155 -5 65 -3 78 13 92 21 19 5 22 193 -33 45 -13 84 -31 97 -45 12 -13 31
-24 41 -24 11 0 25 -7 32 -15 7 -8 18 -15 25 -15 7 0 18 -7 25 -15 7 -9 29
-15 52 -15 32 0 39 -3 34 -15 -4 -10 3 -20 20 -27 23 -11 24 -13 7 -19 -14 -6
-13 -8 9 -8 20 -1 27 4 30 22 2 17 9 21 31 19 l27 -3 0 1451 c0 1250 -2 1449
-14 1437 -18 -18 -128 -16 -150 3 -20 16 -20 54 0 74 11 12 33 15 90 13 71 -2
75 -1 68 18 -7 21 -7 25 2 149 4 50 2 82 -5 89 -8 8 -11 8 -11 -1 0 -7 -10
-12 -23 -12 -13 0 -28 -5 -34 -11 -15 -15 -69 5 -77 28 -7 18 8 48 35 66 28
20 9 30 -40 22 l-39 -6 15 -30 c13 -27 13 -32 -1 -54 -9 -14 -24 -25 -34 -25
-28 0 -62 29 -62 54 0 26 28 56 53 56 20 0 21 4 7 30 -7 13 -4 24 11 44 19 24
48 38 35 17 -3 -5 1 -11 9 -15 8 -3 15 -2 15 3 0 12 43 22 50 12 3 -4 13 -10
23 -14 22 -8 22 -45 0 -69 -15 -17 -15 -18 15 -18 17 0 33 -6 35 -12 4 -10 8
-9 16 2 16 22 14 743 -2 733 -9 -5 -8 -2 0 8 10 13 13 398 13 1812 l0 1797
-4000 0 -4000 0 0 -2041z m6984 1855 c19 -18 21 -28 5 -18 -8 5 -10 -1 -5 -19
7 -29 -14 -48 -44 -40 -10 3 -30 -3 -44 -12 -50 -33 -108 5 -83 56 10 19 21
25 57 27 25 2 49 7 55 13 14 14 42 11 59 -7z m-914 -124 c13 -7 18 -21 18 -47
0 -21 0 -43 1 -50 1 -12 44 -20 139 -26 l52 -3 0 33 c0 24 4 33 17 33 9 0 13
3 9 7 -9 10 93 35 115 28 29 -9 52 -54 45 -87 -5 -24 -2 -31 14 -35 11 -3 20
-9 20 -13 0 -4 28 -13 63 -19 106 -18 166 -40 182 -65 27 -41 2 -94 -53 -111
-17 -5 -29 1 -55 27 -33 34 -67 42 -96 24 -8 -5 -31 -10 -50 -12 -20 -1 -66
-5 -103 -9 -46 -5 -76 -4 -97 4 -26 11 -33 10 -60 -10 -30 -22 -30 -22 -58 -3
-15 10 -47 20 -70 20 -23 1 -54 9 -67 18 -15 9 -27 12 -31 6 -12 -20 -54 -10
-75 17 -19 25 -23 26 -33 12 -21 -28 -55 -41 -77 -29 -11 6 -20 15 -20 21 0 6
-17 -6 -37 -26 -68 -64 -116 -59 -121 14 -3 38 1 46 38 83 32 31 50 40 76 40
19 0 45 9 60 20 33 26 68 26 105 -1 17 -12 40 -21 51 -19 20 3 22 10 25 72 2
52 7 72 20 82 22 16 29 17 53 4z m-439 -325 c17 -11 49 -90 49 -122 0 -12 -4
-25 -10 -28 -15 -9 -12 -128 5 -224 10 -56 11 -89 5 -101 -14 -26 -12 -107 2
-147 10 -28 10 -39 -4 -66 -13 -23 -15 -43 -10 -72 4 -22 7 -101 7 -175 0
-105 -4 -141 -16 -164 -15 -27 -15 -29 8 -52 48 -48 17 -107 -56 -106 l-40 1
3 -57 c2 -31 4 -63 5 -71 1 -9 9 -11 24 -7 56 14 112 -105 85 -181 -10 -29
-10 -38 5 -66 14 -25 16 -44 11 -77 -8 -53 -17 -67 -58 -85 -19 -8 -24 -14
-14 -14 29 -2 48 -41 48 -100 0 -36 -5 -60 -16 -73 -16 -17 -15 -19 10 -39 16
-13 26 -30 26 -46 0 -29 -25 -63 -47 -63 -18 0 -17 -15 3 -30 24 -21 46 -82
41 -115 -17 -107 -39 -139 -90 -138 -35 1 -37 -3 -37 -56 0 -46 -30 -63 -66
-37 -20 15 -21 21 -23 152 -1 67 -3 75 -18 70 -15 -6 -15 -5 -2 11 25 31 10
96 -19 86 -13 -5 -14 -3 -5 7 6 7 9 20 6 29 -4 12 -1 11 11 -4 l18 -20 -7 20
c-9 25 -9 35 0 60 6 16 5 17 -4 5 -10 -13 -12 -13 -20 -1 -7 11 -3 21 12 35
14 12 16 17 6 13 -9 -3 -22 -2 -29 3 -15 9 -5 30 15 30 8 0 4 10 -12 29 -24
27 -26 27 -61 15 -57 -20 -109 -18 -122 5 -30 58 6 117 78 126 102 13 110 15
115 36 3 12 0 22 -9 26 -16 6 -19 33 -4 33 6 0 10 7 10 15 0 8 -4 15 -10 15
-5 0 -10 23 -10 50 0 39 4 50 16 50 9 0 12 5 8 12 -4 7 -3 8 4 4 8 -4 8 -15 2
-31 -5 -14 -6 -25 -1 -25 13 0 22 29 16 53 -3 12 0 30 8 41 11 15 17 16 34 7
17 -8 22 -7 27 5 10 26 7 34 -12 34 -10 0 -28 7 -40 16 -26 18 -30 7 -4 -12
15 -12 15 -12 -6 -7 -18 4 -21 2 -16 -11 3 -9 1 -23 -6 -31 -22 -26 -35 -6
-37 58 -1 34 -2 69 -2 77 -2 35 5 90 12 96 4 4 3 12 -2 18 -12 14 -17 98 -7
114 4 6 3 20 -3 30 -13 25 -2 102 15 102 18 0 18 9 -2 32 -13 14 -18 45 -21
150 -3 119 -4 248 -2 303 0 11 -2 83 -4 160 -4 108 -2 144 8 159 8 10 18 15
23 12 14 -8 24 58 24 155 1 80 6 94 43 100 40 8 120 4 136 -6z m1196 -507 c-3
-8 -6 -5 -6 6 -1 11 2 17 5 13 3 -3 4 -12 1 -19z m-4613 -450 c5 -26 16 -50
23 -53 8 -3 47 -8 86 -11 40 -4 77 -11 83 -15 6 -5 64 -7 129 -5 141 6 165 -1
166 -46 0 -28 2 -30 9 -13 l9 20 0 -20 c0 -27 -24 -57 -42 -53 -8 2 -25 -8
-36 -21 -18 -21 -21 -22 -21 -6 0 17 -1 17 -21 -1 -14 -13 -35 -19 -67 -19
-125 1 -570 17 -589 21 -27 5 -29 28 -10 92 17 55 49 74 107 61 53 -12 80 2
80 41 0 21 -4 28 -14 24 -7 -3 -16 2 -19 10 -4 9 -13 16 -22 16 -24 0 -18 18
8 22 12 2 47 3 77 3 l55 0 9 -47z m339 34 c11 -16 -6 -62 -22 -62 -34 0 -57
52 -28 63 19 8 45 8 50 -1z m37 -23 c0 -5 -4 -9 -10 -9 -5 0 -10 7 -10 16 0 8
5 12 10 9 6 -3 10 -10 10 -16z m4673 -70 c30 -42 -16 -94 -62 -70 -23 13 -29
59 -9 79 19 19 55 14 71 -9z m-6488 -200 c199 -12 201 -13 220 -49 20 -39 19
-73 -4 -101 -19 -23 -24 -24 -178 -25 -195 -1 -281 7 -293 26 -6 8 -10 11 -11
5 0 -5 -2 -20 -5 -33 -3 -19 -1 -22 20 -16 21 5 26 1 36 -31 10 -31 10 -40 -2
-52 -37 -37 -88 -19 -88 31 0 29 -5 36 -30 45 -25 8 -30 15 -30 43 0 19 7 44
16 56 18 26 59 29 73 5 9 -15 10 -14 11 10 0 37 25 84 47 90 27 7 45 6 218 -4z
m1690 -72 c73 3 135 -6 135 -21 0 -6 -22 -37 -49 -67 -28 -31 -56 -77 -67
-106 -17 -48 -21 -52 -44 -46 -37 9 -41 13 -35 33 3 10 1 21 -5 25 -7 4 -9 18
-6 31 4 14 2 24 -4 24 -5 0 -10 -7 -10 -15 0 -16 -12 -18 -47 -9 -25 7 -39 39
-26 57 5 7 10 23 11 37 2 35 47 73 75 63 12 -4 45 -7 72 -6z m-283 -83 c48 -8
61 -23 42 -49 -13 -17 -16 -18 -24 -5 -7 10 -10 11 -10 3 0 -7 -12 -13 -27
-14 -16 0 -37 -4 -47 -8 -34 -13 -66 -1 -66 25 0 13 -5 24 -11 24 -6 0 -3 7 6
16 9 9 25 14 35 11 11 -3 23 -1 26 4 3 6 13 8 22 5 10 -3 34 -8 54 -12z m1033
-1 c-16 -38 -23 -98 -13 -110 10 -13 33 -8 58 12 8 7 33 19 55 26 22 7 46 17
53 22 8 7 12 4 12 -7 0 -9 7 -16 15 -16 8 0 15 -4 15 -10 0 -14 26 -12 42 3
19 18 61 35 76 30 6 -3 12 -11 12 -19 0 -12 9 -14 45 -8 32 4 45 3 45 -6 0 -7
8 -9 20 -5 14 5 20 2 20 -10 0 -9 5 -13 11 -9 8 4 9 -3 5 -23 -6 -26 -3 -30
29 -43 19 -7 35 -17 35 -21 0 -4 10 -11 23 -15 28 -9 37 -22 37 -56 0 -17 5
-28 14 -28 8 0 29 -18 46 -41 18 -22 38 -38 45 -36 11 5 28 -23 54 -86 14 -35
14 -50 1 -42 -6 4 -8 9 -6 13 2 4 -7 7 -20 7 -28 0 -33 -25 -9 -45 12 -10 19
-10 27 -2 7 7 23 12 36 12 19 0 23 -4 17 -17 -11 -25 -8 -57 5 -61 5 -2 10
-12 10 -23 0 -10 7 -19 15 -19 8 0 15 -5 15 -10 0 -6 -8 -10 -17 -8 -19 3 -18
15 -15 -251 1 -24 8 -59 17 -77 11 -24 16 -69 18 -159 1 -69 4 -125 7 -125 3
0 3 -55 0 -122 -5 -99 -10 -131 -27 -163 -12 -22 -28 -56 -37 -75 -23 -49 -68
-126 -88 -150 -10 -11 -18 -24 -18 -28 0 -11 -101 -101 -121 -107 -11 -4 -19
-10 -19 -15 0 -5 -17 -12 -37 -16 -21 -4 -41 -12 -45 -18 -5 -8 -8 -7 -8 2 0
18 -15 15 -62 -16 -50 -33 -87 -48 -143 -57 -22 -4 -44 -10 -50 -14 -5 -4 -59
-5 -120 -2 -116 6 -111 5 -181 69 -14 12 -29 22 -34 22 -5 0 -12 11 -16 25 -3
14 -10 25 -14 25 -15 0 -39 66 -41 113 -2 38 2 51 19 68 20 18 34 20 118 18
60 -1 99 2 107 10 8 8 -6 11 -55 11 -64 0 -95 13 -69 30 7 4 12 13 11 21 -4
27 0 36 25 47 31 14 82 16 87 3 3 -9 27 -6 113 14 27 6 31 4 32 -16 2 -29 33
-60 40 -41 3 7 16 17 29 22 13 5 24 16 24 25 0 8 7 15 15 15 8 0 15 4 15 9 0
11 53 33 71 29 8 -2 14 5 14 17 0 18 -7 20 -65 21 -36 1 -84 4 -107 8 -25 4
-44 3 -48 -4 -8 -13 -180 -13 -206 0 -10 6 -45 14 -77 18 -53 6 -57 9 -60 35
-2 18 1 27 10 27 21 0 20 40 0 41 -14 0 -13 2 3 9 11 5 17 9 13 9 -5 1 2 12
14 26 15 17 32 25 54 25 22 0 44 10 66 29 38 33 135 50 145 25 7 -19 48 -17
64 3 12 15 12 16 -5 10 -11 -5 -29 -1 -45 9 -37 25 -110 21 -161 -7 -34 -19
-44 -21 -60 -11 -11 7 -26 12 -33 12 -7 0 -26 13 -42 30 l-28 30 23 72 c13 40
30 83 37 94 8 12 11 32 8 45 -3 13 -2 44 3 69 15 86 -6 105 -48 42 -35 -53
-46 -75 -60 -119 -6 -21 -14 -45 -17 -53 -4 -8 -5 -19 -3 -25 8 -27 -3 -78
-26 -119 -28 -51 -30 -113 -4 -133 13 -10 13 -14 -4 -31 -10 -12 -15 -26 -11
-31 3 -6 2 -11 -3 -11 -12 0 -42 -84 -42 -117 0 -13 4 -23 8 -23 11 0 12 -39
1 -45 -13 -9 -11 -26 4 -24 30 5 47 -13 47 -51 0 -22 5 -42 11 -46 6 -3 8 -16
5 -29 -4 -15 -1 -25 9 -29 26 -10 16 -23 -15 -18 -25 4 -30 1 -30 -16 0 -12
-4 -24 -10 -27 -5 -3 -10 -15 -10 -26 0 -19 -1 -19 -22 -5 -12 9 -29 16 -38
16 -22 1 -106 119 -123 176 -9 27 -21 80 -28 117 -6 38 -21 87 -32 110 -14 28
-22 69 -25 125 -2 45 -7 82 -11 82 -12 0 -6 153 7 157 6 3 12 12 12 21 0 18
38 62 54 62 6 0 20 12 32 27 18 22 38 31 110 45 49 10 96 20 103 22 39 8 15
69 -32 86 -41 14 -104 12 -152 -5 -22 -8 -48 -15 -58 -15 -10 0 -15 -4 -12
-10 3 -5 2 -10 -3 -10 -5 0 -7 28 -5 62 5 74 18 87 88 88 92 2 128 13 145 43
14 27 14 29 -13 52 -15 13 -43 27 -62 31 -19 3 -35 10 -35 15 0 5 -9 9 -21 9
-12 0 -17 4 -13 11 4 8 -3 9 -25 4 -25 -5 -30 -4 -25 8 3 8 -1 17 -9 20 -30
11 -10 135 27 173 6 6 22 27 36 46 16 24 37 40 62 47 21 7 38 16 38 21 0 6 11
10 24 10 14 0 28 5 31 10 3 6 15 10 25 10 10 0 25 9 32 19 8 10 32 24 55 30
26 7 62 31 99 66 61 57 82 68 69 38z m-2037 -85 c7 2 12 -5 12 -16 0 -20 1
-20 51 1 l51 22 24 -28 c20 -23 22 -31 12 -52 -12 -28 -14 -28 -78 -29 -41 -1
-45 -3 -44 -26 2 -29 -11 -40 -47 -40 -41 0 -60 20 -58 65 0 22 1 57 1 77 0
24 4 36 11 31 6 -3 7 -1 3 5 -4 7 -4 17 0 24 5 8 14 3 29 -14 11 -13 26 -23
33 -20z m781 -9 c-10 -19 -8 -25 7 -36 14 -10 15 -16 6 -25 -9 -9 -12 -9 -12
1 0 7 -5 9 -11 5 -14 -8 -29 14 -29 44 0 12 -5 22 -11 22 -6 0 -1 8 12 19 19
15 25 16 36 5 11 -11 11 -18 2 -35z m-1199 -4 c16 -19 4 -85 -14 -85 -15 0
-86 29 -73 30 4 0 4 8 -1 17 -20 36 61 71 88 38z m1326 -2 c-1 -12 5 -17 16
-15 11 2 23 -9 32 -26 16 -31 48 -45 106 -46 34 -1 35 -2 38 -43 l3 -43 -115
3 c-108 2 -116 3 -117 22 0 20 0 20 -9 0 -8 -19 -9 -19 -9 -1 -1 11 -4 17 -7
13 -3 -3 -17 -2 -30 3 -20 8 -27 5 -41 -17 l-17 -26 -6 24 c-4 15 -12 23 -23
21 -9 -2 -17 2 -17 8 0 5 5 10 11 10 6 0 17 7 26 16 9 8 22 13 29 10 8 -3 21
-9 29 -12 11 -5 15 1 15 25 0 24 4 31 19 31 11 0 28 13 38 30 19 34 31 39 29
13z m-1438 -15 c-2 -13 -10 -23 -18 -23 -8 0 -16 10 -18 23 -3 17 2 22 18 22
16 0 21 -5 18 -22z m1786 -74 c17 -7 22 -34 6 -34 -5 0 -10 -15 -10 -34 0 -44
-13 -53 -40 -26 -25 25 -26 68 -2 86 20 15 25 16 46 8z m-1490 -30 c9 -8 16
-26 16 -38 0 -34 -24 -49 -65 -42 -47 9 -60 50 -24 77 30 23 53 24 73 3z
m1346 -84 c0 -5 -5 -10 -11 -10 -5 0 -7 5 -4 10 3 6 8 10 11 10 2 0 4 -4 4
-10z m63 -58 c33 -47 45 -101 26 -113 -19 -12 -66 -11 -74 2 -4 6 -26 8 -59 4
-48 -6 -53 -5 -66 19 -8 16 -22 26 -36 26 -13 0 -25 4 -28 9 -4 5 3 7 15 4 15
-4 22 0 26 16 6 24 23 29 23 6 0 -17 16 -20 25 -5 4 6 15 8 26 5 29 -9 62 4
55 22 -6 14 18 42 35 43 4 0 18 -17 32 -38z m2550 17 c15 -24 1 -64 -28 -77
-34 -16 -38 -15 -61 6 -20 18 -21 56 -1 80 14 17 77 11 90 -9z m-2773 -29 c0
-11 -4 -20 -10 -20 -5 0 -10 9 -10 20 0 11 5 20 10 20 6 0 10 -9 10 -20z
m-1199 -27 c33 -20 36 -38 12 -65 -30 -34 -113 -15 -113 25 0 23 31 57 52 57
11 0 33 -8 49 -17z m372 -25 c2 -7 0 -24 -5 -37 -8 -23 -9 -23 -28 -6 -23 21
-26 41 -7 48 22 9 35 7 40 -5z m3407 -68 c26 -26 25 -51 -1 -85 -18 -22 -27
-26 -53 -20 -17 3 -55 5 -84 5 -48 -1 -53 1 -62 26 -8 21 -7 32 6 52 14 22 21
24 63 19 31 -4 52 -1 65 9 27 19 42 18 66 -6z m-2749 -112 c21 -39 -47 -78
-79 -46 -17 17 -15 55 4 66 23 13 63 2 75 -20z m176 6 c10 -26 -11 -49 -43
-49 -25 0 -29 4 -32 33 -3 31 -2 32 33 32 24 0 38 -5 42 -16z m-1582 -44 c3
-5 22 -10 42 -10 36 0 36 0 17 -21 -15 -17 -19 -18 -24 -5 -6 18 -24 9 -33
-16 -8 -22 -31 -23 -51 -2 -22 22 -20 43 7 54 29 12 35 12 42 0z m410 -20 c3
-5 -1 -10 -9 -10 -9 0 -16 5 -16 10 0 6 4 10 9 10 6 0 13 -4 16 -10z m3085
-76 c0 -8 -5 -12 -10 -9 -6 4 -8 11 -5 16 9 14 15 11 15 -7z m-1719 -65 c5 -8
9 -26 9 -40 0 -22 4 -26 23 -22 14 3 31 -2 40 -12 21 -21 23 -42 2 -25 -8 6
-19 9 -25 5 -6 -4 -17 -1 -25 5 -12 10 -18 10 -30 0 -8 -7 -15 -10 -15 -6 0 3
-9 -3 -20 -14 -11 -11 -33 -20 -50 -20 -29 0 -70 29 -70 50 0 6 15 17 33 26
18 9 39 29 46 45 10 24 17 28 43 25 17 -2 34 -10 39 -17z m-188 -18 c-3 -13 1
-21 14 -24 10 -3 4 -5 -15 -6 -29 -1 -32 1 -23 18 6 10 7 21 4 25 -3 3 1 6 9
6 11 0 14 -6 11 -19z m807 -12 c0 -5 -4 -9 -10 -9 -5 0 -10 7 -10 16 0 8 5 12
10 9 6 -3 10 -10 10 -16z m-855 -18 c-6 -5 -25 10 -25 20 0 5 6 4 14 -3 8 -7
12 -15 11 -17z m2355 -19 c0 -23 -17 -4 -23 25 -5 26 -4 26 9 8 8 -10 14 -25
14 -33z m1010 17 c0 -6 -5 -7 -11 -3 -8 4 -9 -1 -4 -17 6 -19 5 -21 -5 -13
-14 13 -4 58 11 49 5 -4 9 -11 9 -16z m-2675 1 c8 -13 -5 -13 -25 0 -13 8 -13
10 2 10 9 0 20 -4 23 -10z m1631 -24 c7 -8 19 -16 26 -18 10 -4 12 -30 10
-101 l-4 -97 29 0 c39 0 73 -26 73 -56 0 -19 7 -28 31 -36 37 -13 54 -50 38
-81 -19 -34 -29 -37 -108 -30 l-74 6 16 -24 c10 -13 17 -31 17 -41 0 -21 37
-24 86 -6 27 10 37 9 59 -6 27 -18 30 -39 14 -96 -3 -11 6 -16 36 -18 46 -4
65 -17 65 -43 0 -25 -36 -42 -71 -35 -40 8 -57 -1 -64 -35 -8 -36 -46 -63 -75
-54 -12 4 -34 2 -48 -3 -50 -19 -111 -21 -128 -5 -14 14 -19 14 -49 -3 -33
-17 -35 -17 -54 1 -25 22 -27 60 -5 69 10 4 14 14 11 26 -8 31 15 70 41 70 22
0 31 23 13 35 -5 3 -7 21 -4 40 5 34 -8 48 -22 25 -9 -15 -61 -12 -75 5 -8 10
-10 34 -5 77 8 81 13 98 29 98 7 0 18 11 26 24 11 21 10 27 -2 40 -34 33 -15
156 23 156 6 0 8 8 4 19 -8 28 32 91 58 91 12 0 29 5 37 10 20 13 29 12 46 -4z
m168 -2 c11 -10 14 -24 10 -42 -17 -73 -114 -69 -114 4 0 46 71 72 104 38z
m-4154 -130 c0 -7 3 -19 6 -28 4 -10 1 -16 -10 -16 -8 0 -20 -9 -26 -20 -8
-16 -7 -22 10 -32 12 -7 32 -34 45 -60 22 -44 23 -47 6 -65 -16 -16 -16 -19
-2 -30 14 -11 12 -12 -11 -13 -18 0 -33 8 -43 23 -11 18 -25 24 -55 25 -22 1
-45 3 -52 4 -9 2 -14 -13 -16 -48 -2 -43 -7 -53 -28 -63 -14 -6 -31 -11 -39
-11 -23 0 -37 38 -30 80 6 38 6 39 -28 45 -22 4 -39 15 -48 31 -11 21 -10 26
7 39 47 38 89 40 127 7 16 -14 19 -14 37 6 26 28 25 40 -3 35 -14 -3 -29 3
-42 16 -18 20 -18 23 -2 57 25 52 62 64 137 46 35 -9 60 -20 60 -28z m4060 -1
c-1 -18 -18 -35 -24 -24 -4 6 -4 16 -1 21 7 12 25 13 25 3z m977 -105 c2 -18
0 -20 -7 -8 -12 18 -13 30 -2 30 4 0 9 -10 9 -22z m-2472 -78 c-3 -5 -11 -10
-16 -10 -6 0 -7 5 -4 10 3 6 11 10 16 10 6 0 7 -4 4 -10z m2683 -76 c18 -13
22 -25 22 -74 0 -32 4 -70 10 -84 12 -32 -4 -73 -32 -81 -10 -4 -18 -11 -18
-17 0 -6 -12 -8 -28 -5 -27 5 -31 2 -53 -46 -21 -45 -28 -52 -56 -55 -25 -2
-31 -7 -26 -19 4 -9 2 -14 -3 -10 -14 8 -16 107 -3 123 14 17 61 18 77 2 20
-20 27 1 9 31 -19 32 -22 76 -7 86 15 9 12 41 -5 55 -19 16 -19 60 1 88 18 27
78 30 112 6z m-713 -36 c36 -16 43 -53 16 -88 -11 -16 -21 -42 -21 -58 0 -35
-30 -64 -65 -64 -26 0 -75 36 -75 56 0 6 -22 25 -48 41 -34 21 -48 37 -50 56
-4 35 22 59 62 59 45 0 60 -20 53 -70 -3 -22 -1 -40 3 -40 15 0 24 24 22 51
-2 19 5 33 24 48 31 24 43 26 79 9z m353 3 c22 -14 10 -56 -16 -59 -23 -3 -52
13 -52 29 0 12 30 39 43 39 7 0 18 -4 25 -9z m2081 -39 c-17 -3 -32 -39 -23
-54 7 -11 34 -10 34 1 0 6 -4 13 -10 16 -15 9 -12 25 4 25 20 0 29 -16 21 -39
-12 -39 -65 -32 -65 8 0 25 30 62 43 54 8 -5 7 -9 -4 -11z m-2333 -89 c23 -25
23 -27 8 -45 -21 -22 -42 -23 -66 -1 -21 19 -23 44 -6 61 19 19 37 14 64 -15z
m2004 -53 c0 -5 -7 -10 -15 -10 -8 0 -15 5 -15 10 0 6 7 10 15 10 8 0 15 -4
15 -10z m220 0 c0 -5 -4 -10 -9 -10 -6 0 -13 5 -16 10 -3 6 1 10 9 10 9 0 16
-4 16 -10z m210 -16 c0 -8 -4 -14 -10 -14 -5 0 -10 9 -10 21 0 11 5 17 10 14
6 -3 10 -13 10 -21z m100 10 c0 -8 -5 -12 -10 -9 -6 4 -8 11 -5 16 9 14 15 11
15 -7z m-7084 -19 c15 -23 15 -27 0 -50 -29 -44 -86 -28 -86 25 0 53 57 69 86
25z m7304 15 c0 -5 -4 -10 -9 -10 -6 0 -13 5 -16 10 -3 6 1 10 9 10 9 0 16 -4
16 -10z m-5336 -25 c17 -9 37 -13 50 -8 26 9 49 5 58 -10 11 -17 10 -59 -1
-52 -5 3 -13 1 -16 -5 -7 -11 -20 -12 -144 -12 -77 -1 -94 8 -89 47 2 15 12
20 38 22 19 2 41 10 49 18 19 18 19 18 55 0z m4573 -11 c-7 -7 -37 7 -37 17 0
6 9 5 21 -1 11 -7 19 -14 16 -16z m-4755 -1 c25 -23 23 -57 -6 -72 -31 -17
-64 -6 -72 24 -13 53 38 85 78 48z m4969 -1 c-7 -2 -18 1 -23 6 -8 8 -4 9 13
5 13 -4 18 -8 10 -11z m214 8 c3 -5 -1 -10 -9 -10 -9 0 -16 5 -16 10 0 6 4 10
9 10 6 0 13 -4 16 -10z m322 -6 c-3 -3 -12 -4 -19 -1 -8 3 -5 6 6 6 11 1 17
-2 13 -5z m-6443 -12 c3 -5 2 -21 -2 -37 -7 -26 -9 -27 -25 -11 -18 18 -22 38
-10 49 9 10 31 9 37 -1z m3592 -38 c19 -15 34 -30 34 -35 0 -15 -73 -43 -107
-41 -30 2 -33 0 -29 -22 2 -13 -3 -34 -11 -46 -12 -17 -23 -21 -53 -18 -33 3
-37 1 -29 -14 13 -25 11 -36 -11 -58 -42 -42 -130 -13 -130 43 1 49 52 75 103
53 14 -7 17 -3 17 22 0 17 5 34 10 37 6 3 10 15 10 26 0 31 24 49 67 49 21 1
49 7 63 15 32 18 26 19 66 -11z m259 -30 c12 -9 14 -14 6 -14 -10 0 -11 -3 -3
-13 7 -8 9 -29 5 -50 -5 -31 -3 -37 12 -37 25 0 55 -29 55 -52 0 -26 -36 -58
-64 -58 -17 0 -27 -7 -32 -22 -3 -13 -13 -30 -20 -39 -11 -13 -12 -22 -4 -45
9 -24 8 -31 -6 -41 -25 -18 -48 -16 -67 5 -13 15 -14 21 -3 42 8 18 9 34 3 56
-9 30 -13 32 -71 38 -33 3 -70 6 -81 7 -27 0 -55 28 -55 53 1 33 22 52 64 60
21 4 49 14 62 23 13 8 25 14 28 14 20 -3 26 1 26 20 0 15 -5 19 -15 15 -16 -6
-55 26 -55 44 0 6 11 10 25 10 19 0 23 -4 19 -17 -5 -14 -4 -15 4 -5 21 31
125 34 167 6z m2089 -3 c-1 -6 -2 -18 -2 -26 -1 -8 -10 -15 -19 -15 -23 0 -49
17 -40 26 3 4 13 1 22 -6 12 -10 15 -10 15 3 0 8 -7 18 -16 21 -8 3 -13 10 -9
15 7 13 50 -3 49 -18z m216 -2 c0 -23 -8 -24 -32 -2 -25 22 -23 31 7 25 16 -3
25 -11 25 -23z m-430 0 c0 -13 -5 -19 -12 -15 -7 3 -21 9 -30 12 -27 10 -21
19 12 22 25 2 30 -2 30 -19z m97 -5 c-9 -9 -28 6 -21 18 4 6 10 6 17 -1 6 -6
8 -13 4 -17z m439 15 c3 -6 1 -16 -5 -22 -9 -9 -15 -8 -22 6 -6 9 -14 15 -20
12 -14 -9 -11 -25 5 -25 18 0 30 -17 17 -24 -13 -9 -41 22 -41 45 0 14 7 19
29 19 17 0 33 -5 37 -11z m206 -19 c-3 -31 -14 -42 -35 -34 -19 7 -31 39 -22
54 4 6 19 10 33 8 22 -2 26 -8 24 -28z m106 22 c8 -5 10 -16 6 -28 -10 -26
-25 -34 -45 -24 -19 11 -33 40 -19 40 6 0 10 -7 10 -15 0 -8 7 -15 15 -15 11
0 14 7 9 25 -6 26 1 31 24 17z m-445 -41 c11 -4 16 -11 10 -14 -14 -9 -53 21
-53 41 1 15 2 15 11 -1 6 -10 20 -22 32 -26z m-323 -9 c-7 -3 -19 3 -28 13
-16 15 -15 16 12 4 15 -7 23 -15 16 -17z m-4603 5 c61 -18 41 -33 -48 -36 -70
-2 -150 15 -121 26 6 3 10 9 6 14 -8 13 114 11 163 -4z m4508 3 c3 -5 -3 -10
-14 -10 -11 0 -23 5 -26 10 -3 6 3 10 14 10 11 0 23 -4 26 -10z m-1613 -27
c-6 -2 -10 -9 -7 -13 3 -5 1 -11 -5 -15 -5 -3 -10 0 -10 8 0 17 10 27 24 26 6
0 5 -3 -2 -6z m1970 -36 c13 -20 9 -55 -8 -71 -18 -19 -28 -20 -55 -6 -22 12
-26 69 -7 88 14 14 59 7 70 -11z m419 13 c27 -15 26 -66 -2 -80 -50 -28 -95
18 -65 65 18 27 36 31 67 15z m-2401 -54 c-14 -14 -24 0 -16 21 6 15 8 15 16
3 6 -9 5 -19 0 -24z m-2866 -31 c-5 -19 -2 -25 11 -25 13 0 16 6 13 25 -3 13
-1 22 3 19 15 -9 10 -51 -6 -64 -13 -11 -20 -11 -40 0 -28 15 -30 22 -15 51
16 29 42 25 34 -6z m-1234 -5 c0 -5 -5 -10 -11 -10 -5 0 -7 5 -4 10 3 6 8 10
11 10 2 0 4 -4 4 -10z m5718 -24 c2 -9 -3 -16 -12 -16 -9 0 -16 7 -16 15 0 18
-12 19 -28 3 -7 -7 -12 -8 -12 -2 0 35 61 35 68 0z m-13 -44 c-6 -7 -45 9 -45
18 0 4 11 3 24 -3 14 -7 23 -13 21 -15z m-2949 -18 c-4 -14 -2 -24 4 -24 7 0
9 -8 5 -20 -4 -12 -2 -20 5 -20 8 0 10 -9 6 -25 -5 -19 -3 -23 9 -19 10 4 15
0 15 -10 0 -28 17 -17 35 21 10 21 17 55 17 75 -2 40 11 50 26 21 9 -17 33
-109 37 -142 1 -9 6 -32 10 -51 8 -33 9 -34 15 -10 4 14 7 -19 8 -74 1 -105
-19 -197 -74 -336 -14 -35 -41 -112 -60 -170 -20 -58 -39 -114 -44 -125 -35
-86 -55 -146 -86 -264 -42 -161 -132 -465 -169 -571 -38 -109 -144 -524 -171
-669 -13 -69 -34 -163 -48 -210 -13 -48 -30 -115 -36 -151 -24 -133 -92 -379
-135 -490 -24 -63 -51 -153 -60 -200 -8 -47 -30 -128 -48 -181 l-33 -97 -38
132 c-41 141 -238 917 -287 1131 -29 125 -59 297 -63 360 -1 17 -7 48 -13 70
-17 58 -39 407 -34 522 1 26 4 30 22 26 18 -5 19 -2 13 23 -4 16 -13 46 -21
68 -7 21 -13 59 -13 85 0 73 23 295 31 301 4 3 -12 45 -37 94 -24 48 -44 100
-44 114 0 27 7 63 55 267 24 104 85 255 102 255 11 0 35 -79 28 -91 -4 -5 -8
-22 -11 -37 -3 -20 -2 -23 5 -12 13 19 21 10 31 -36 8 -35 5 -165 -5 -223 -3
-16 6 -41 25 -70 17 -24 30 -37 30 -29 0 9 -7 21 -15 28 -15 13 -22 45 -7 36
5 -3 7 12 5 32 -2 20 -1 61 2 90 5 43 10 52 26 52 10 0 19 7 19 15 0 8 5 15
11 15 5 0 7 -5 3 -12 -4 -6 3 -4 16 5 23 16 25 16 45 -3 23 -22 93 -41 82 -22
-11 17 4 42 24 42 26 0 24 9 -12 53 -40 48 -63 121 -45 136 7 6 53 18 102 26
49 9 93 20 98 25 6 6 18 10 28 10 33 0 332 135 383 173 82 61 109 77 195 117
25 12 42 0 36 -26z m3624 22 c0 -3 -4 -8 -10 -11 -5 -3 -10 -1 -10 4 0 6 5 11
10 11 6 0 10 -2 10 -4z m-148 -60 c15 -8 40 -17 57 -21 17 -4 31 -10 31 -15 0
-5 5 -21 10 -35 9 -23 13 -25 25 -15 13 11 15 8 16 -16 2 -26 2 -27 6 -5 12
64 69 93 107 55 28 -28 20 -69 -21 -100 -20 -15 -33 -23 -30 -17 4 6 0 14 -9
17 -28 11 -34 7 -34 -21 0 -23 -2 -25 -11 -13 -8 12 -9 9 -5 -12 4 -16 1 -28
-6 -30 -6 -2 -13 -15 -15 -29 -2 -13 -15 -35 -30 -48 l-27 -23 -28 31 c-22 24
-27 38 -22 54 13 37 10 71 -6 84 -25 21 -39 15 -34 -13 3 -14 1 -23 -5 -20 -5
3 -14 -1 -21 -9 -15 -18 -59 -19 -81 -2 -9 7 -19 23 -24 36 -5 18 -9 21 -16
10 -7 -11 -9 -11 -9 3 0 20 -36 44 -42 27 -6 -19 -56 1 -62 26 -8 33 9 74 36
84 80 31 206 40 250 17z m282 1 c-3 -8 2 -20 11 -27 13 -11 15 -9 15 10 0 12
5 20 11 18 6 -2 10 -7 10 -11 -1 -4 -1 -16 -1 -28 0 -16 -5 -20 -27 -17 -17 2
-29 10 -31 21 -4 19 4 47 12 47 3 0 3 -6 0 -13z m-3406 -35 c6 -9 12 -33 12
-53 0 -48 13 -56 55 -33 29 15 39 16 73 6 79 -24 198 -5 196 31 -1 11 5 17 18
17 14 0 18 -5 14 -15 -3 -9 0 -15 8 -15 15 0 56 -62 56 -86 0 -21 33 -17 81
11 24 14 59 25 76 25 27 0 37 -7 58 -39 20 -32 32 -41 67 -48 36 -7 46 -14 61
-45 16 -33 24 -38 65 -43 74 -11 119 -24 132 -40 18 -22 -1 -67 -36 -84 -16
-8 -32 -19 -36 -25 -4 -6 -44 -12 -94 -12 -47 -1 -97 -7 -110 -14 -20 -11 -37
-9 -116 13 -51 15 -99 34 -105 44 -9 12 -29 17 -70 18 -78 2 -113 11 -178 46
-63 33 -175 116 -175 129 0 5 -5 21 -10 35 -9 23 -13 25 -26 14 -13 -10 -24
-4 -72 43 -31 31 -77 68 -101 83 l-45 28 35 18 c42 22 146 17 167 -9z m989
-34 c-2 -13 -4 -5 -4 17 -1 22 1 32 4 23 2 -10 2 -28 0 -40z m-2687 30 c0 -7
-5 -20 -10 -28 -8 -12 -10 -9 -10 13 0 15 5 27 10 27 6 0 10 -6 10 -12z m2217
-4 c3 -9 0 -20 -8 -25 -8 -5 -15 -4 -17 1 -2 6 -10 10 -18 10 -8 0 -14 4 -14
8 0 26 47 30 57 6z m2728 6 c3 -5 1 -10 -4 -10 -6 0 -11 5 -11 10 0 6 2 10 4
10 3 0 8 -4 11 -10z m-2013 -30 c23 -28 23 -47 -2 -104 -18 -44 -21 -46 -59
-46 -45 0 -58 14 -81 87 -11 37 -11 45 5 69 16 24 21 26 68 21 37 -3 56 -11
69 -27z m-3271 -10 c27 -15 26 -75 -2 -90 -16 -9 -26 -8 -45 5 -28 18 -31 41
-8 73 17 25 27 27 55 12z m4703 -84 c-4 -16 -1 -25 10 -29 12 -5 16 0 16 18 0
26 14 33 25 15 4 -6 2 -17 -4 -24 -8 -10 -5 -18 14 -32 26 -20 32 -52 15 -85
-14 -25 -42 -24 -65 1 -15 17 -16 24 -5 49 10 26 10 33 -4 46 -18 18 -19 25
-10 49 9 24 15 19 8 -8z m-6994 -16 c11 -11 20 -24 20 -30 0 -15 -38 -50 -54
-50 -7 0 -25 11 -39 24 l-25 23 26 27 c32 31 46 32 72 6z m7712 -88 c-3 -10
-9 -9 -23 4 -10 9 -23 13 -28 9 -21 -12 -11 14 11 29 20 14 22 14 33 -7 6 -12
10 -28 7 -35z m-2129 -60 c31 -28 11 -132 -35 -177 -27 -26 -37 -30 -79 -28
-66 3 -91 17 -87 51 2 19 13 32 35 43 23 11 29 19 22 30 -16 25 -9 59 17 86
22 22 31 24 67 19 23 -4 50 -15 60 -24z m1793 3 c14 -14 30 -23 35 -20 5 4 9
-3 9 -14 0 -28 12 -26 49 5 29 24 31 24 55 9 16 -11 26 -13 31 -6 3 6 14 11
23 11 14 0 14 -2 3 -9 -15 -10 -8 -41 9 -41 6 0 9 4 6 9 -4 5 -3 16 0 25 5 13
10 14 20 5 10 -8 10 -16 2 -35 -13 -28 -39 -31 -62 -8 -15 14 -16 14 -16 -5 0
-14 -6 -21 -19 -21 -30 0 -51 11 -51 26 0 8 -6 11 -15 8 -8 -4 -15 -12 -15
-19 0 -8 7 -20 15 -29 8 -8 16 -23 16 -33 1 -17 2 -17 6 0 2 9 8 17 11 17 13
-1 38 -25 37 -37 0 -20 -39 -43 -55 -33 -8 5 -22 4 -33 -2 -11 -5 -33 -7 -50
-4 l-30 6 36 -35 c40 -39 40 -69 0 -88 -19 -8 -23 -16 -18 -31 4 -12 9 -37 12
-57 5 -35 5 -35 51 -33 26 1 71 5 100 8 44 4 57 1 73 -15 21 -21 24 -50 9 -79
-9 -16 -22 -19 -88 -19 -42 0 -84 -1 -92 -1 -17 0 -113 -1 -210 -2 -36 0 -91
2 -122 4 l-58 4 6 -36 c5 -32 3 -37 -35 -61 -50 -32 -162 -47 -205 -28 -14 7
-26 16 -26 21 0 4 -10 6 -22 4 -13 -2 -36 1 -51 7 -45 15 -32 47 30 77 47 22
52 28 53 57 0 17 5 35 10 38 19 12 1 22 -30 17 -24 -3 -30 -9 -30 -28 0 -82
-83 -112 -120 -44 -6 11 -16 20 -23 20 -15 0 -51 -46 -61 -78 -4 -12 -13 -22
-19 -22 -17 1 -47 25 -47 38 0 6 -17 14 -37 17 -21 3 -52 10 -69 15 -17 6 -37
10 -46 10 -20 0 -52 36 -43 49 3 6 2 11 -4 11 -5 0 -14 -7 -18 -15 -8 -14 -30
-20 -65 -17 -10 1 -24 15 -32 31 -10 19 -29 33 -59 43 l-44 14 -11 -43 c-7
-24 -17 -43 -23 -43 -5 0 -8 -4 -4 -9 3 -6 26 -13 51 -17 35 -5 48 -12 57 -31
9 -20 7 -27 -10 -44 -18 -18 -25 -19 -62 -9 -23 6 -45 9 -49 6 -13 -8 -28 7
-50 46 -14 25 -17 35 -8 32 23 -9 28 14 6 26 -14 8 -20 8 -20 0 0 -6 -5 -8
-11 -4 -8 5 -8 9 1 14 7 4 9 17 5 33 -4 15 -12 24 -17 21 -5 -4 -8 -15 -5 -25
7 -25 -4 -24 -56 3 -23 12 -45 21 -49 20 -16 -4 -108 30 -132 49 -56 44 -16
118 58 106 19 -3 38 -2 42 3 5 5 36 10 68 12 54 3 61 1 71 -19 25 -48 75 -84
75 -53 0 6 6 10 13 10 8 0 20 12 28 26 7 14 25 31 39 36 21 8 28 5 47 -17 13
-14 23 -31 23 -38 0 -7 17 -13 41 -15 37 -2 42 0 52 27 14 38 48 47 84 24 15
-10 24 -12 20 -5 -5 6 -4 12 2 12 5 0 11 -5 13 -11 3 -8 15 -7 40 5 35 17 37
16 79 -7 40 -23 45 -23 67 -9 19 13 27 13 48 1 16 -8 24 -19 21 -29 -4 -15 7
-17 92 -14 53 2 114 6 136 9 22 4 133 6 248 5 l207 -1 0 29 c0 16 9 40 19 54
l20 25 -47 11 c-33 7 -51 7 -60 0 -9 -8 -20 -8 -37 0 -28 13 -35 61 -12 80 15
13 57 12 57 -2 0 -5 8 -2 18 7 10 10 24 17 30 17 7 0 9 13 5 35 -5 29 -1 41
17 60 30 31 45 31 76 0z m-6416 -16 c23 -42 -31 -67 -64 -30 -16 18 -16 20 6
35 30 21 45 20 58 -5z m6204 -24 c-4 -8 -1 -22 6 -30 7 -8 8 -15 2 -15 -16 0
-35 29 -28 45 3 8 10 15 15 15 6 0 8 -7 5 -15z m41 -5 c-3 -5 -10 -10 -16 -10
-5 0 -9 5 -9 10 0 6 7 10 16 10 8 0 12 -4 9 -10z m-6795 -120 c11 -11 20 -24
20 -29 0 -40 -47 -69 -81 -51 -37 20 -16 100 27 100 8 0 23 -9 34 -20z m1248
8 c17 -17 15 -53 -3 -68 -21 -17 -62 -4 -71 22 -5 16 -1 27 16 40 26 21 41 23
58 6z m5150 -40 c19 -19 14 -30 -8 -18 -11 6 -25 8 -30 5 -6 -3 -7 1 -4 9 7
19 25 21 42 4z m-6724 -89 c13 -7 30 -25 37 -41 10 -25 9 -33 -8 -56 -40 -54
-103 -31 -103 36 0 33 22 72 41 72 4 0 19 -5 33 -11z m5511 -15 c20 -31 19
-54 -3 -54 -23 0 -183 57 -195 69 -7 7 23 10 86 9 89 -1 98 -3 112 -24z
m-5130 -19 c30 -29 31 -46 8 -73 -28 -32 -59 -36 -82 -13 -25 25 -27 58 -5 89
20 29 49 28 79 -3z m286 -21 c16 -32 -1 -71 -36 -80 -34 -8 -53 0 -66 30 -14
30 4 83 29 89 26 5 58 -12 73 -39z m237 20 c13 -9 24 -30 28 -53 4 -28 13 -42
30 -50 16 -7 24 -19 23 -33 0 -22 -1 -22 -9 -3 -5 11 -9 17 -9 13 -1 -3 -4
-13 -7 -22 -4 -11 -1 -16 10 -16 24 0 19 -17 -6 -23 -16 -4 -31 1 -48 17 -15
14 -43 26 -70 29 -78 10 -96 72 -35 126 40 35 60 38 93 15z m254 -14 c31 -31
52 -38 64 -19 3 6 20 9 38 6 22 -3 37 1 53 16 19 17 27 19 48 9 38 -18 52 -55
32 -86 -9 -14 -14 -32 -11 -41 16 -40 -67 -74 -96 -40 -7 8 -22 15 -34 15 -12
0 -27 5 -33 11 -6 6 -34 12 -61 13 -87 3 -133 75 -82 126 27 27 46 25 82 -10z
m448 -10 c34 -34 25 -63 -34 -108 -35 -27 -50 -28 -76 -2 -31 31 -26 70 12
102 39 33 71 35 98 8z m185 -12 c19 -18 41 -39 49 -46 25 -20 20 -69 -9 -88
-23 -15 -27 -15 -50 0 -14 9 -25 21 -25 26 0 6 -9 10 -19 10 -29 0 -63 49 -56
80 14 57 60 65 110 18z m342 -45 c4 -11 -55 -43 -78 -43 -15 0 -10 22 8 42 18
21 64 21 70 1z m-1472 -73 c3 -5 1 -10 -4 -10 -6 0 -11 5 -11 10 0 6 2 10 4
10 3 0 8 -4 11 -10z m-665 -435 c0 -19 -36 -39 -45 -25 -11 18 3 40 25 40 11
0 20 -7 20 -15z m283 -2372 c-7 -2 -19 -2 -25 0 -7 3 -2 5 12 5 14 0 19 -2 13
-5z m6055 -289 c-5 -26 -38 -26 -39 -1 -1 17 -2 18 -6 5 -6 -23 -25 -23 -21
-1 2 11 16 20 33 23 32 6 39 1 33 -26z m-5141 -16 c-3 -8 -6 -5 -6 6 -1 11 2
17 5 13 3 -3 4 -12 1 -19z"/>
<path d="M5450 6042 c0 -17 4 -34 10 -37 6 -4 7 6 3 27 -8 44 -13 48 -13 10z"/>
<path d="M5455 5667 c-4 -10 -5 -21 -1 -24 10 -10 18 4 13 24 -4 17 -4 17 -12
0z"/>
<path d="M5459 5608 c0 -7 -2 -29 -5 -48 -10 -76 -10 -90 0 -90 6 0 12 23 13
52 1 29 4 62 8 75 3 13 1 23 -5 23 -5 0 -10 -6 -11 -12z"/>
<path d="M5457 5413 c-4 -3 -7 -11 -7 -17 0 -6 5 -5 12 2 6 6 9 14 7 17 -3 3
-9 2 -12 -2z"/>
<path d="M5580 5216 c0 -9 8 -12 27 -8 25 5 25 6 8 13 -29 11 -35 10 -35 -5z"/>
<path d="M3425 5590 c-4 -6 -4 -23 0 -39 5 -25 3 -29 -22 -36 -15 -3 -33 -11
-39 -16 -16 -13 -6 -49 11 -43 7 3 16 1 19 -5 4 -6 13 -8 21 -4 8 3 15 0 15
-7 0 -6 5 -8 12 -4 7 5 24 7 39 6 14 -1 45 5 69 13 34 12 55 13 109 5 78 -12
118 -27 125 -46 7 -19 70 -18 86 1 11 13 6 22 -29 55 -23 22 -49 40 -57 40 -8
0 -12 5 -9 10 3 6 0 10 -7 10 -7 0 -22 12 -33 26 -17 21 -29 26 -65 26 -72 0
-100 -4 -100 -14 0 -5 -10 -6 -21 -3 -15 5 -19 4 -15 -4 4 -6 1 -11 -6 -11 -7
0 -24 -3 -37 -7 -20 -5 -23 -3 -18 10 3 9 -1 23 -9 32 -18 18 -30 19 -39 5z"/>
<path d="M3502 5320 c-36 -8 -72 -40 -72 -64 0 -8 -5 -18 -11 -21 -5 -4 -9
-14 -7 -23 4 -20 73 -26 147 -12 94 19 144 21 172 10 20 -9 33 -9 48 0 22 11
22 11 -6 41 -34 37 -83 59 -141 63 -24 2 -46 7 -49 10 -8 8 -39 6 -81 -4z m35
-75 c8 -23 0 -26 -43 -17 -38 9 -39 9 -14 20 35 15 50 14 57 -3z"/>
<path d="M2795 4517 c-4 -10 -3 -23 3 -29 6 -6 8 -16 6 -23 -7 -16 22 -39 41
-31 21 8 19 33 -4 41 -11 3 -24 18 -29 33 -8 24 -11 25 -17 9z"/>
<path d="M2847 4513 c-12 -12 -7 -33 8 -33 17 0 19 9 7 28 -5 7 -11 9 -15 5z"/>
<path d="M4326 4711 c-4 -7 -5 -15 -2 -18 9 -9 19 4 14 18 -4 11 -6 11 -12 0z"/>
<path d="M4330 4660 c-9 -6 -10 -10 -3 -10 6 0 15 5 18 10 8 12 4 12 -15 0z"/>
<path d="M4396 4504 c-10 -27 -7 -44 9 -44 10 0 15 10 15 30 0 32 -14 40 -24
14z"/>
<path d="M7786 4381 c-3 -5 1 -14 9 -21 12 -10 15 -10 15 3 0 19 -16 31 -24
18z"/>
<path d="M3315 3590 c-3 -5 1 -10 9 -10 9 0 16 5 16 10 0 6 -4 10 -9 10 -6 0
-13 -4 -16 -10z"/>
<path d="M3451 3161 c-1 -39 31 -142 46 -148 7 -3 13 -11 13 -18 0 -14 33 -55
45 -55 15 0 -7 55 -37 92 -17 22 -39 65 -49 96 -11 35 -18 48 -18 33z"/>
<path d="M7523 4000 c-26 -11 -31 -27 -8 -27 8 0 15 4 15 9 0 4 7 8 15 8 8 0
15 5 15 10 0 12 -7 12 -37 0z"/>
<path d="M7540 3964 c0 -8 5 -12 10 -9 6 3 10 10 10 16 0 5 -4 9 -10 9 -5 0
-10 -7 -10 -16z"/>
<path d="M6585 3431 c-8 -8 -5 -40 4 -45 5 -4 7 4 5 16 -2 13 -1 17 2 10 5
-10 9 -10 20 -1 8 6 14 14 14 18 0 7 -38 9 -45 2z"/>
<path d="M5975 3360 c-3 -6 1 -7 9 -4 18 7 21 14 7 14 -6 0 -13 -4 -16 -10z"/>
<path d="M7807 3733 c-4 -3 -7 -13 -7 -22 1 -13 3 -13 11 2 11 19 8 33 -4 20z"/>
<path d="M7928 3 c7 -3 16 -2 19 1 4 3 -2 6 -13 5 -11 0 -14 -3 -6 -6z"/>
</g>
</svg>
